<?xml version="1.0" encoding="UTF-8" standalone="no"?>
<!DOCTYPE svg PUBLIC "-//W3C//DTD SVG 1.1//EN"
 "http://www.w3.org/Graphics/SVG/1.1/DTD/svg11.dtd">
<!-- Generated by graphviz version 2.43.0 (0)
 -->
<!-- Title: %3 Pages: 1 -->
<svg width="295pt" height="170pt"
 viewBox="0.00 0.00 294.89 169.50" xmlns="http://www.w3.org/2000/svg" xmlns:xlink="http://www.w3.org/1999/xlink">
<g id="graph0" class="graph" transform="scale(1 1) rotate(0) translate(4 165.5)">
<title>%3</title>
<!-- network_wrapper -->
<g id="node1" class="node">
<title>network_wrapper</title>
<ellipse fill="#666644" stroke="black" cx="54.45" cy="-72" rx="54.39" ry="26.74"/>
<text text-anchor="middle" x="54.45" y="-75.8" font-family="Times,serif" font-size="14.00" fill="#eeeeee">network</text>
<text text-anchor="middle" x="54.45" y="-60.8" font-family="Times,serif" font-size="14.00" fill="#eeeeee">wrapper</text>
</g>
<!-- ws_client -->
<g id="node2" class="node">
<title>ws_client</title>
<polygon fill="#666666" stroke="black" points="283.89,-161.5 147.89,-161.5 147.89,-108.5 283.89,-108.5 283.89,-161.5"/>
<text text-anchor="middle" x="215.89" y="-146.3" font-family="Times,serif" font-size="14.00" fill="#eeeeee">websocket client</text>
<text text-anchor="middle" x="215.89" y="-131.3" font-family="Times,serif" font-size="14.00" fill="#eeeeee">native/wasm</text>
<text text-anchor="middle" x="215.89" y="-116.3" font-family="Times,serif" font-size="14.00" fill="#eeeeee">client</text>
</g>
<!-- network_wrapper&#45;&gt;ws_client -->
<g id="edge1" class="edge">
<title>network_wrapper&#45;&gt;ws_client</title>
<path fill="none" stroke="#aaaaaa" stroke-width="4" d="M97.34,-88.55C109.86,-93.5 124,-99.09 138.02,-104.63"/>
<polygon fill="#aaaaaa" stroke="#aaaaaa" stroke-width="4" points="137.1,-108.03 147.69,-108.45 139.68,-101.52 137.1,-108.03"/>
</g>
<!-- ws_server -->
<g id="node3" class="node">
<title>ws_server</title>
<polygon fill="#664444" stroke="black" points="286.89,-90 144.89,-90 144.89,-54 286.89,-54 286.89,-90"/>
<text text-anchor="middle" x="215.89" y="-68.3" font-family="Times,serif" font-size="14.00" fill="#eeeeee">websocket server</text>
</g>
<!-- network_wrapper&#45;&gt;ws_server -->
<g id="edge2" class="edge">
<title>network_wrapper&#45;&gt;ws_server</title>
<path fill="none" stroke="#aa0000" stroke-width="4" d="M108.98,-72C117.24,-72 125.92,-72 134.61,-72"/>
<polygon fill="#aa0000" stroke="#aa0000" stroke-width="4" points="134.79,-75.5 144.79,-72 134.79,-68.5 134.79,-75.5"/>
</g>
<!-- http_server -->
<g id="node4" class="node">
<title>http_server</title>
<polygon fill="#446644" stroke="black" points="264.39,-36 167.39,-36 167.39,0 264.39,0 264.39,-36"/>
<text text-anchor="middle" x="215.89" y="-14.3" font-family="Times,serif" font-size="14.00" fill="#eeeeee">http server</text>
</g>
<!-- network_wrapper&#45;&gt;http_server -->
<g id="edge3" class="edge">
<title>network_wrapper&#45;&gt;http_server</title>
<path fill="none" stroke="#00aa00" stroke-width="4" d="M99.86,-56.96C117.84,-50.87 138.81,-43.77 157.89,-37.31"/>
<polygon fill="#00aa00" stroke="#00aa00" stroke-width="4" points="159.02,-40.62 167.37,-34.09 156.78,-33.99 159.02,-40.62"/>
</g>
</g>
</svg>
